<?xml version="1.0" encoding="UTF-8" standalone="no"?>
<svg
   xmlns:dc="http://purl.org/dc/elements/1.1/"
   xmlns:cc="http://creativecommons.org/ns#"
   xmlns:rdf="http://www.w3.org/1999/02/22-rdf-syntax-ns#"
   xmlns:svg="http://www.w3.org/2000/svg"
   xmlns="http://www.w3.org/2000/svg"
   xmlns:sodipodi="http://sodipodi.sourceforge.net/DTD/sodipodi-0.dtd"
   xmlns:inkscape="http://www.inkscape.org/namespaces/inkscape"
   aria-hidden="true"
   focusable="false"
   data-prefix="fab"
   data-icon="google-plus"
   class="svg-inline--fa fa-google-plus fa-w-16"
   role="img"
   viewBox="0 0 40 40"
   version="1.1"
   id="svg4"
   sodipodi:docname="google-plus-brands.svg"
   width="40"
   height="40"
   inkscape:version="0.92.1 r15371">
  <metadata
     id="metadata10">
    <rdf:RDF>
      <cc:Work
         rdf:about="">
        <dc:format>image/svg+xml</dc:format>
        <dc:type
           rdf:resource="http://purl.org/dc/dcmitype/StillImage" />
        <dc:title></dc:title>
      </cc:Work>
    </rdf:RDF>
  </metadata>
  <defs
     id="defs8" />
  <sodipodi:namedview
     pagecolor="#ffffff"
     bordercolor="#666666"
     borderopacity="1"
     objecttolerance="10"
     gridtolerance="10"
     guidetolerance="10"
     inkscape:pageopacity="0"
     inkscape:pageshadow="2"
     inkscape:window-width="1366"
     inkscape:window-height="745"
     id="namedview6"
     showgrid="false"
     inkscape:zoom="3.6875"
     inkscape:cx="26.496681"
     inkscape:cy="10.095825"
     inkscape:window-x="-8"
     inkscape:window-y="-8"
     inkscape:window-maximized="1"
     inkscape:current-layer="svg4" />
  <path
     d="m 20.271187,0.40678 c -11.0403231,0 -20.00000056,8.9596773 -20.00000056,19.999999 0,11.040323 8.95967746,20 20.00000056,20 11.040322,0 20,-8.959677 20,-20 0,-11.0403217 -8.959678,-19.999999 -20,-19.999999 z m -5.701613,30 c -5.5483875,0 -10.0000005,-4.475806 -10.0000005,-10.000001 0,-5.524194 4.451613,-10 10.0000005,-10 2.524195,0 4.846773,0.887096 6.693548,2.604839 l -2.709678,2.629031 c -1.064514,-1.040322 -2.524192,-1.540321 -3.98387,-1.540321 -3.459678,0 -6.2258071,2.862904 -6.2258071,6.298385 0,3.435484 2.7580641,6.298388 6.2258071,6.298388 2.629031,0 5.23387,-1.540321 5.653225,-4.298387 h -5.653225 v -3.435483 h 9.427418 c 0.104838,0.548388 0.153226,1.096775 0.153226,1.669352 0,5.709679 -3.830645,9.774197 -9.580644,9.774197 z M 33.13409,21.842262 v 2.862904 h -2.862903 v -2.862904 h -2.862904 v -2.8629 h 2.862904 v -2.862905 h 2.862903 v 2.862905 h 2.838709 v 2.8629 z"
     id="path2"
     inkscape:connector-curvature="0"
     style="fill:currentColor;stroke-width:0.08064518" />
</svg>
